<svg xmlns="http://www.w3.org/2000/svg" width="767.557" height="246.91" viewBox="0 0 767.557 246.91">
  <g id="Grupo_19" data-name="Grupo 19" transform="translate(11085 9656.91)">
    <circle id="Elipse_4070" data-name="Elipse 4070" cx="59.817" cy="59.817" r="59.817" transform="translate(-11050.2 -9656.91)" fill="#e8e8e8"/>
    <circle id="Elipse_4071" data-name="Elipse 4071" cx="45.275" cy="45.275" r="45.275" transform="translate(-11035.659 -9642.369)" fill="#4dd0e1"/>
    <g id="Grupo_53801" data-name="Grupo 53801" transform="translate(-11014.597 -9624.975)">
      <path id="Trazado_101411" data-name="Trazado 101411" d="M-8.708.54c7.785,0,13.5-5.9,13.5-16.29S-.923-32.04-8.708-32.04c-7.74,0-13.5,5.9-13.5,16.29S-16.448.54-8.708.54Zm0-6.165c-3.6,0-6.12-2.97-6.12-10.125s2.52-10.125,6.12-10.125c3.645,0,6.165,2.97,6.165,10.125S-5.062-5.625-8.708-5.625ZM6.638-31.5v5.85h6.3V0h7.29V-31.5Z" transform="translate(24 44)" fill="#fff"/>
    </g>
    <circle id="Elipse_4073" data-name="Elipse 4073" cx="59.817" cy="59.817" r="59.817" transform="translate(-10845.321 -9656.91)" fill="#e8e8e8"/>
    <circle id="Elipse_4074" data-name="Elipse 4074" cx="45.275" cy="45.275" r="45.275" transform="translate(-10830.78 -9642.369)" fill="#ffa726"/>
    <g id="Grupo_53806" data-name="Grupo 53806" transform="translate(-10814.813 -9624.975)">
      <path id="Trazado_101412" data-name="Trazado 101412" d="M-13.163.54c7.785,0,13.5-5.9,13.5-16.29s-5.715-16.29-13.5-16.29c-7.74,0-13.5,5.9-13.5,16.29S-20.9.54-13.163.54Zm0-6.165c-3.6,0-6.12-2.97-6.12-10.125s2.52-10.125,6.12-10.125C-9.517-25.875-7-22.905-7-15.75S-9.517-5.625-13.163-5.625ZM13.613-5.94l7.245-6.84c4.41-4.1,5.265-6.885,5.265-9.945,0-5.715-4.68-9.315-11.7-9.315-5.67,0-10.08,2.3-12.51,5.85l5.31,3.42a7.7,7.7,0,0,1,6.525-3.15c3.33,0,5.04,1.44,5.04,3.915,0,1.53-.5,3.15-3.285,5.805L3.353-4.725V0H27.158V-5.94Z" transform="translate(28 44)" fill="#fff"/>
    </g>
    <circle id="Elipse_4076" data-name="Elipse 4076" cx="59.817" cy="59.817" r="59.817" transform="translate(-10641.199 -9656.91)" fill="#e8e8e8"/>
    <circle id="Elipse_4077" data-name="Elipse 4077" cx="45.275" cy="45.275" r="45.275" transform="translate(-10626.658 -9642.369)" fill="#039be5"/>
    <g id="Grupo_53811" data-name="Grupo 53811" transform="translate(-10610.692 -9624.975)">
      <path id="Trazado_101413" data-name="Trazado 101413" d="M-13.118.54c7.785,0,13.5-5.9,13.5-16.29s-5.715-16.29-13.5-16.29c-7.74,0-13.5,5.9-13.5,16.29S-20.858.54-13.118.54Zm0-6.165c-3.6,0-6.12-2.97-6.12-10.125s2.52-10.125,6.12-10.125c3.645,0,6.165,2.97,6.165,10.125S-9.472-5.625-13.118-5.625ZM18.2-18.675l7.11-8.1V-31.5H3.263v5.85h13.41l-6.48,7.335V-13.5h3.33c4.14,0,5.9,1.485,5.9,3.87,0,2.565-2.25,4.05-5.9,4.05a15.3,15.3,0,0,1-9-2.835L1.688-2.835A21.658,21.658,0,0,0,13.7.54c8.955,0,13.05-4.86,13.05-10.17C26.753-14.265,23.873-17.775,18.2-18.675Z" transform="translate(28 44)" fill="#fff"/>
    </g>
    <circle id="Elipse_4079" data-name="Elipse 4079" cx="59.817" cy="59.817" r="59.817" transform="translate(-10437.077 -9656.91)" fill="#e8e8e8"/>
    <circle id="Elipse_4080" data-name="Elipse 4080" cx="45.275" cy="45.275" r="45.275" transform="translate(-10422.536 -9642.369)" fill="#ffca28"/>
    <g id="Grupo_53816" data-name="Grupo 53816" transform="translate(-10409.117 -9624.975)">
      <path id="Trazado_101414" data-name="Trazado 101414" d="M-15.525.54c7.785,0,13.5-5.9,13.5-16.29s-5.715-16.29-13.5-16.29c-7.74,0-13.5,5.9-13.5,16.29S-23.265.54-15.525.54Zm0-6.165c-3.6,0-6.12-2.97-6.12-10.125s2.52-10.125,6.12-10.125c3.645,0,6.165,2.97,6.165,10.125S-11.88-5.625-15.525-5.625Zm45.9-6.93h-5.13v-5.9H18.36v5.9H9.9L23.67-31.5H16.02L1.17-11.52v4.905H18.135V0h7.11V-6.615h5.13Z" transform="translate(31 44)" fill="#fff"/>
    </g>
    <path id="Trazado_100516" data-name="Trazado 100516" d="M148.932,323.822l-17.547-17.546a4.459,4.459,0,0,1,6.306-6.306l11.241,11.239,11.239-11.239a4.46,4.46,0,1,1,6.308,6.306Z" transform="translate(-11139.476 -9814.145)" fill="#e8e8e8"/>
    <path id="Trazado_100517" data-name="Trazado 100517" d="M264,323.822l-17.547-17.546a4.459,4.459,0,1,1,6.306-6.306L264,311.209l11.239-11.239a4.46,4.46,0,1,1,6.308,6.306Z" transform="translate(-11047.24 -9814.145)" fill="#e8e8e8"/>
    <path id="Trazado_100518" data-name="Trazado 100518" d="M379.057,323.823,361.51,306.276a4.46,4.46,0,1,1,6.308-6.306l11.239,11.238L390.3,299.969a4.46,4.46,0,1,1,6.308,6.306Z" transform="translate(-10959.783 -9814.145)" fill="#e8e8e8"/>
    <path id="Trazado_100519" data-name="Trazado 100519" d="M494.12,323.822l-17.547-17.546a4.459,4.459,0,1,1,6.306-6.306l11.241,11.239,11.24-11.239a4.459,4.459,0,1,1,6.306,6.306Z" transform="translate(-10871.382 -9814.145)" fill="#e8e8e8"/>
    <path id="Trazado_4" data-name="Trazado 4" d="M12.681-23.461a8.26,8.26,0,0,1,6.437,2.723,8.034,8.034,0,0,1,1.845,6.9L20.335-9.62A10.9,10.9,0,0,1,16.508-2.61,11.157,11.157,0,0,1,9.168,0H.58L4.093-23.461ZM8.911-19.271,6.655-4.189H9.8A4.414,4.414,0,0,0,13.036-5.72a7.051,7.051,0,0,0,1.837-3.9l.628-4.254a5.558,5.558,0,0,0-.612-3.932,3.182,3.182,0,0,0-2.836-1.466ZM29.5.338a6.989,6.989,0,0,1-5.769-2.425,7.421,7.421,0,0,1-1.418-6.051L22.4-8.75a11.253,11.253,0,0,1,3.086-6.582A8.823,8.823,0,0,1,32-17.757a6.083,6.083,0,0,1,5.076,2.135,7.239,7.239,0,0,1,1.16,5.76L37.8-7.009H27.8l-.032.1a2.92,2.92,0,0,0,.677,2.232,3.151,3.151,0,0,0,2.433.83A11.534,11.534,0,0,0,33.5-4.117a18.431,18.431,0,0,0,2.514-.814l.806,3.319A11.6,11.6,0,0,1,33.588-.226,14.909,14.909,0,0,1,29.5.338Zm1.869-13.906a2.57,2.57,0,0,0-2.006.83,5.026,5.026,0,0,0-1.088,2.232l.032.1H33l.064-.419A3.336,3.336,0,0,0,32.9-12.9,1.6,1.6,0,0,0,31.373-13.567ZM40.235,0l2.046-13.664H39.768l.564-3.771h2.514l.274-1.8a6.9,6.9,0,0,1,2.49-4.681,8.558,8.558,0,0,1,5.358-1.555,8.529,8.529,0,0,1,1.249.1q.653.1,1.394.242l-1,4.012q-.435-.081-.773-.121a7.1,7.1,0,0,0-.822-.04,2.5,2.5,0,0,0-1.652.54,2.257,2.257,0,0,0-.781,1.507l-.274,1.8h3.448l-.564,3.771H47.744L45.7,0ZM60.957-.016a6.705,6.705,0,0,1-.33-1.241,8.431,8.431,0,0,1-.121-1.45A8.347,8.347,0,0,1,58.427-.491a4.747,4.747,0,0,1-2.836.83,5.255,5.255,0,0,1-4-1.426,4.341,4.341,0,0,1-1-3.827,5.536,5.536,0,0,1,2.53-4.052,11.431,11.431,0,0,1,6.139-1.362H61.5l.193-1.241a2.3,2.3,0,0,0-.274-1.732,1.832,1.832,0,0,0-1.547-.572,2.235,2.235,0,0,0-1.466.451,2.065,2.065,0,0,0-.677,1.37l-5.285-.016-.016-.1A5.457,5.457,0,0,1,55.019-16.2a10.158,10.158,0,0,1,5.793-1.555,7.152,7.152,0,0,1,4.947,1.627,4.789,4.789,0,0,1,1.37,4.592l-.983,6.574a12.338,12.338,0,0,0-.161,2.586A13.612,13.612,0,0,0,66.338,0Zm-3.3-3.529a3.7,3.7,0,0,0,1.813-.475,3.349,3.349,0,0,0,1.265-1.12l.338-2.288H58.878a2.813,2.813,0,0,0-1.95.636A2.6,2.6,0,0,0,56.074-5.2a1.348,1.348,0,0,0,.33,1.217A1.689,1.689,0,0,0,57.653-3.545ZM79.293-2.53A7.021,7.021,0,0,1,76.957-.395a6.065,6.065,0,0,1-2.965.733,4.421,4.421,0,0,1-3.916-1.917Q68.771-3.5,69.368-7.444l1.5-9.99H76.3L74.8-7.412a5.012,5.012,0,0,0,.089,2.844,1.6,1.6,0,0,0,1.523.717,4.544,4.544,0,0,0,1.563-.258,3.575,3.575,0,0,0,1.241-.757L81.1-17.435h5.446L83.934,0H79.551ZM92.635,0H87.173l3.771-25.137h5.462Zm12.858-21.769-.661,4.334h2.755l-.564,3.771h-2.755l-1.192,7.992a1.768,1.768,0,0,0,.153,1.37,1.182,1.182,0,0,0,.975.387,5.941,5.941,0,0,0,.677-.032,5.4,5.4,0,0,0,.661-.129L105.3-.048a13.588,13.588,0,0,1-1.515.3,12.321,12.321,0,0,1-1.579.089,4.724,4.724,0,0,1-3.819-1.45q-1.225-1.45-.757-4.528l1.192-8.024H96.39l.564-3.771h2.433l.661-4.334Z" transform="translate(-11058 -9431)" fill="#45bac9"/>
    <path id="Trazado_5" data-name="Trazado 5" d="M7.219-8.041,6.026,0H.58L4.093-23.461h8.959a8.54,8.54,0,0,1,6.22,2.151,6.094,6.094,0,0,1,1.708,5.567A8.344,8.344,0,0,1,17.7-10.095a11.248,11.248,0,0,1-6.953,2.054Zm.628-4.189h3.529a4.08,4.08,0,0,0,2.82-.991,4.039,4.039,0,0,0,1.337-2.49,3.271,3.271,0,0,0-.548-2.586,3.08,3.08,0,0,0-2.562-.975H8.911Zm25.008-.564-1.772-.016a3.2,3.2,0,0,0-1.563.363,2.855,2.855,0,0,0-1.063,1.007L26.748,0H21.3l2.61-17.435h5.124l-.177,2.385.081.048a5.569,5.569,0,0,1,1.676-2.038,3.725,3.725,0,0,1,2.224-.717,4.088,4.088,0,0,1,.653.048,4.283,4.283,0,0,1,.6.145ZM38.64,0H33.177l2.61-17.435H41.25Zm3.223-21.479H36.4l.548-3.658H42.41ZM49.581-7.187l.048,1.853.1.016.628-1.869,3.835-10.248h5.72L51.627,0H46.1L43.039-17.435h5.736ZM68.771-.016a6.705,6.705,0,0,1-.33-1.241,8.431,8.431,0,0,1-.121-1.45A8.347,8.347,0,0,1,66.242-.491a4.747,4.747,0,0,1-2.836.83,5.255,5.255,0,0,1-4-1.426,4.341,4.341,0,0,1-1-3.827,5.536,5.536,0,0,1,2.53-4.052,11.431,11.431,0,0,1,6.139-1.362h2.24l.193-1.241a2.3,2.3,0,0,0-.274-1.732,1.832,1.832,0,0,0-1.547-.572,2.235,2.235,0,0,0-1.466.451,2.065,2.065,0,0,0-.677,1.37l-5.285-.016-.016-.1A5.457,5.457,0,0,1,62.834-16.2a10.158,10.158,0,0,1,5.793-1.555,7.152,7.152,0,0,1,4.947,1.627,4.789,4.789,0,0,1,1.37,4.592L73.96-4.963A12.338,12.338,0,0,0,73.8-2.377,13.612,13.612,0,0,0,74.153,0Zm-3.3-3.529a3.7,3.7,0,0,0,1.813-.475,3.349,3.349,0,0,0,1.265-1.12l.338-2.288H66.693a2.813,2.813,0,0,0-1.95.636A2.6,2.6,0,0,0,63.889-5.2a1.348,1.348,0,0,0,.33,1.217A1.689,1.689,0,0,0,65.468-3.545ZM85.723-21.769l-.661,4.334h2.755l-.564,3.771H84.5L83.306-5.672a1.768,1.768,0,0,0,.153,1.37,1.182,1.182,0,0,0,.975.387,5.941,5.941,0,0,0,.677-.032,5.4,5.4,0,0,0,.661-.129L85.529-.048a13.588,13.588,0,0,1-1.515.3,12.321,12.321,0,0,1-1.579.089,4.724,4.724,0,0,1-3.819-1.45q-1.225-1.45-.757-4.528l1.192-8.024H76.619l.564-3.771h2.433l.661-4.334ZM95.536.338a6.989,6.989,0,0,1-5.769-2.425,7.421,7.421,0,0,1-1.418-6.051l.081-.612a11.253,11.253,0,0,1,3.086-6.582,8.823,8.823,0,0,1,6.518-2.425,6.083,6.083,0,0,1,5.076,2.135,7.239,7.239,0,0,1,1.16,5.76l-.435,2.852H93.828l-.032.1a2.92,2.92,0,0,0,.677,2.232,3.151,3.151,0,0,0,2.433.83,11.534,11.534,0,0,0,2.626-.266,18.431,18.431,0,0,0,2.514-.814l.806,3.319A11.6,11.6,0,0,1,99.62-.226,14.909,14.909,0,0,1,95.536.338ZM97.4-13.567a2.57,2.57,0,0,0-2.006.83,5.026,5.026,0,0,0-1.088,2.232l.032.1h4.689l.064-.419a3.336,3.336,0,0,0-.169-2.071A1.6,1.6,0,0,0,97.4-13.567Z" transform="translate(-10838 -9431)" fill="#e49524"/>
    <path id="Trazado_6" data-name="Trazado 6" d="M7.219-8.041,6.026,0H.58L4.093-23.461h8.959a8.54,8.54,0,0,1,6.22,2.151,6.094,6.094,0,0,1,1.708,5.567A8.344,8.344,0,0,1,17.7-10.095a11.248,11.248,0,0,1-6.953,2.054Zm.628-4.189h3.529a4.08,4.08,0,0,0,2.82-.991,4.039,4.039,0,0,0,1.337-2.49,3.271,3.271,0,0,0-.548-2.586,3.08,3.08,0,0,0-2.562-.975H8.911ZM32.21-2.53A7.021,7.021,0,0,1,29.874-.395a6.065,6.065,0,0,1-2.965.733,4.421,4.421,0,0,1-3.916-1.917Q21.688-3.5,22.285-7.444l1.5-9.99h5.43l-1.5,10.022A5.012,5.012,0,0,0,27.8-4.568a1.6,1.6,0,0,0,1.523.717,4.544,4.544,0,0,0,1.563-.258,3.575,3.575,0,0,0,1.241-.757l1.885-12.568h5.446L36.851,0H32.468ZM57.25-8.347a12.18,12.18,0,0,1-2.659,6.405A6.892,6.892,0,0,1,49.178.338,4.184,4.184,0,0,1,46.825-.3a4.555,4.555,0,0,1-1.563-1.845L44.6,0H39.848l3.771-25.137h5.446l-1.418,9.394a6.522,6.522,0,0,1,1.909-1.49,5.03,5.03,0,0,1,2.3-.524,4.9,4.9,0,0,1,4.641,2.49A10.269,10.269,0,0,1,57.3-8.685Zm-5.382-.338a8.7,8.7,0,0,0-.032-3.642,1.819,1.819,0,0,0-1.982-1.241,3.4,3.4,0,0,0-1.555.346,3.473,3.473,0,0,0-1.184.991l-1.08,7.283a1.831,1.831,0,0,0,.894.822,3.649,3.649,0,0,0,1.507.274A2.535,2.535,0,0,0,50.725-5a8.854,8.854,0,0,0,1.1-3.352ZM64.1,0H58.636l3.771-25.137h5.462Zm9.04,0H67.676l2.61-17.435h5.462Zm3.223-21.479H70.9l.548-3.658h5.462ZM84.514-3.851a2.435,2.435,0,0,0,1.724-.612,2.9,2.9,0,0,0,.838-1.74h4.947l.032.1A6.777,6.777,0,0,1,89.388-1.4a8.8,8.8,0,0,1-5.5,1.74A6.655,6.655,0,0,1,78.2-2.151a8.151,8.151,0,0,1-1.273-6.373l.064-.371a10.835,10.835,0,0,1,3.086-6.469,8.969,8.969,0,0,1,6.486-2.393,6.506,6.506,0,0,1,4.971,1.869,5.6,5.6,0,0,1,1.233,5.043l-.032.081H87.753a3.1,3.1,0,0,0-.25-2.046,1.666,1.666,0,0,0-1.571-.757,2.673,2.673,0,0,0-2.361,1.289,8.331,8.331,0,0,0-1.152,3.384l-.064.371a7.448,7.448,0,0,0,.1,3.472A1.933,1.933,0,0,0,84.514-3.851Z" transform="translate(-10425 -9431)" fill="#e49524"/>
    <path id="Trazado_7" data-name="Trazado 7" d="M15.437-8.041,14.244,0H8.8l3.513-23.461H21.27a8.54,8.54,0,0,1,6.22,2.151A6.094,6.094,0,0,1,29.2-15.743a8.344,8.344,0,0,1-3.279,5.648,11.248,11.248,0,0,1-6.953,2.054Zm.628-4.189h3.529a4.08,4.08,0,0,0,2.82-.991,4.039,4.039,0,0,0,1.337-2.49A3.271,3.271,0,0,0,23.2-18.3a3.08,3.08,0,0,0-2.562-.975H17.128Zm25.008-.564L39.3-12.81a3.2,3.2,0,0,0-1.563.363,2.855,2.855,0,0,0-1.063,1.007L34.966,0H29.52l2.61-17.435h5.124l-.177,2.385.081.048a5.569,5.569,0,0,1,1.676-2.038,3.725,3.725,0,0,1,2.224-.717,4.088,4.088,0,0,1,.653.048,4.283,4.283,0,0,1,.6.145Zm.371,3.916A10.674,10.674,0,0,1,44.6-15.356a9.251,9.251,0,0,1,6.59-2.4,6.821,6.821,0,0,1,5.76,2.5,8.125,8.125,0,0,1,1.362,6.381l-.048.338a10.821,10.821,0,0,1-3.182,6.486A9.219,9.219,0,0,1,48.517.338a6.871,6.871,0,0,1-5.785-2.49A8.02,8.02,0,0,1,41.4-8.54Zm5.4.338a6.712,6.712,0,0,0,.145,3.472,2.078,2.078,0,0,0,2.159,1.217,2.854,2.854,0,0,0,2.441-1.273A7.96,7.96,0,0,0,52.835-8.54l.048-.338a6.822,6.822,0,0,0-.177-3.44,2.058,2.058,0,0,0-2.143-1.249A2.869,2.869,0,0,0,48.1-12.262,7.645,7.645,0,0,0,46.89-8.878ZM68.9-21.769l-.661,4.334H71l-.564,3.771H67.676L66.483-5.672a1.768,1.768,0,0,0,.153,1.37,1.182,1.182,0,0,0,.975.387,5.941,5.941,0,0,0,.677-.032,5.4,5.4,0,0,0,.661-.129L68.707-.048a13.588,13.588,0,0,1-1.515.3,12.321,12.321,0,0,1-1.579.089,4.724,4.724,0,0,1-3.819-1.45q-1.225-1.45-.757-4.528l1.192-8.024H59.8l.564-3.771h2.433l.661-4.334ZM78.713.338a6.989,6.989,0,0,1-5.769-2.425,7.421,7.421,0,0,1-1.418-6.051l.081-.612a11.253,11.253,0,0,1,3.086-6.582,8.823,8.823,0,0,1,6.518-2.425,6.083,6.083,0,0,1,5.076,2.135,7.239,7.239,0,0,1,1.16,5.76l-.435,2.852H77.005l-.032.1a2.92,2.92,0,0,0,.677,2.232,3.151,3.151,0,0,0,2.433.83,11.534,11.534,0,0,0,2.626-.266,18.431,18.431,0,0,0,2.514-.814l.806,3.319A11.6,11.6,0,0,1,82.8-.226,14.909,14.909,0,0,1,78.713.338Zm1.869-13.906a2.57,2.57,0,0,0-2.006.83,5.026,5.026,0,0,0-1.088,2.232l.032.1H82.21l.064-.419a3.336,3.336,0,0,0-.169-2.071A1.6,1.6,0,0,0,80.583-13.567ZM96.309-3.851a2.435,2.435,0,0,0,1.724-.612,2.9,2.9,0,0,0,.838-1.74h4.947l.032.1A6.777,6.777,0,0,1,101.183-1.4a8.8,8.8,0,0,1-5.5,1.74,6.655,6.655,0,0,1-5.688-2.49A8.151,8.151,0,0,1,88.72-8.524l.064-.371a10.835,10.835,0,0,1,3.086-6.469,8.969,8.969,0,0,1,6.486-2.393,6.506,6.506,0,0,1,4.971,1.869,5.6,5.6,0,0,1,1.233,5.043l-.032.081H99.548a3.1,3.1,0,0,0-.25-2.046,1.666,1.666,0,0,0-1.571-.757,2.673,2.673,0,0,0-2.361,1.289,8.331,8.331,0,0,0-1.152,3.384l-.064.371a7.448,7.448,0,0,0,.1,3.472A1.933,1.933,0,0,0,96.309-3.851Zm18.369-17.918-.661,4.334h2.755l-.564,3.771h-2.755l-1.192,7.992a1.768,1.768,0,0,0,.153,1.37,1.182,1.182,0,0,0,.975.387,5.941,5.941,0,0,0,.677-.032,5.4,5.4,0,0,0,.661-.129l-.242,4.028a13.588,13.588,0,0,1-1.515.3,12.321,12.321,0,0,1-1.579.089,4.724,4.724,0,0,1-3.819-1.45q-1.225-1.45-.757-4.528l1.192-8.024h-2.433l.564-3.771h2.433l.661-4.334ZM124.491.338a6.989,6.989,0,0,1-5.769-2.425A7.421,7.421,0,0,1,117.3-8.137l.081-.612a11.253,11.253,0,0,1,3.086-6.582,8.823,8.823,0,0,1,6.518-2.425,6.083,6.083,0,0,1,5.076,2.135,7.239,7.239,0,0,1,1.16,5.76l-.435,2.852H122.783l-.032.1a2.92,2.92,0,0,0,.677,2.232,3.151,3.151,0,0,0,2.433.83,11.534,11.534,0,0,0,2.626-.266A18.431,18.431,0,0,0,131-4.931l.806,3.319a11.6,11.6,0,0,1-3.231,1.386A14.909,14.909,0,0,1,124.491.338Zm1.869-13.906a2.57,2.57,0,0,0-2.006.83,5.026,5.026,0,0,0-1.088,2.232l.032.1h4.689l.064-.419a3.336,3.336,0,0,0-.169-2.071A1.6,1.6,0,0,0,126.36-13.567Zm8.266,4.882a12.682,12.682,0,0,1,2.755-6.647,6.866,6.866,0,0,1,5.4-2.425,3.721,3.721,0,0,1,2.079.588,4.683,4.683,0,0,1,1.515,1.684l1.45-9.652h5.446L149.5,0h-4.77l-.048-2.111A7.11,7.11,0,0,1,142.562-.3a5.188,5.188,0,0,1-2.522.636,4.992,4.992,0,0,1-4.576-2.417,9.086,9.086,0,0,1-.886-6.268Zm5.4.338a6.825,6.825,0,0,0,.1,3.344,1.838,1.838,0,0,0,1.926,1.152,3.58,3.58,0,0,0,1.531-.33,3.461,3.461,0,0,0,1.225-.959l1.063-6.993a2.316,2.316,0,0,0-.9-1.063,2.663,2.663,0,0,0-1.434-.371,2.616,2.616,0,0,0-2.264,1.362,8.876,8.876,0,0,0-1.2,3.521Z" transform="translate(-10663 -9431)" fill="#45bac9"/>
    <text id="No_se_requiere_palabra_clave._" data-name="No se requiere palabra clave. " transform="translate(-11085 -9413)" fill="#45bac9" font-size="14" font-family="Roboto-Regular, Roboto"><tspan x="0" y="0">No se requiere palabra clave. </tspan></text>
  </g>
</svg>
